<svg xmlns="http://www.w3.org/2000/svg" viewBox="0 0 512 512" width="512" height="512" preserveAspectRatio="xMidYMid meet" style="width: 100%; height: 100%; transform: translate3d(0px, 0px, 0px); content-visibility: visible;"><g clip-path="url(#__lottie_element_65)"><g transform="matrix(1.333400011062622,0,0,1.333400011062622,-0.0128173828125,-0.0128173828125)" opacity="1" style="display: block;"><g opacity="1"><g opacity="1"><g opacity="1"><path fill="rgb(237,84,99)" fill-opacity="1" d=" M368.8900146484375,117.26000213623047 C359.2200012207031,94.4000015258789 345.3800048828125,73.86000061035156 327.760009765625,56.22999954223633 C310.1199951171875,38.61000061035156 289.5799865722656,24.770000457763672 266.7300109863281,15.100000381469727 C243.05999755859375,5.090000152587891 217.91000366210938,0 191.99000549316406,0 C166.0800018310547,0 140.92999267578125,5.079999923706055 117.26000213623047,15.100000381469727 C94.4000015258789,24.770000457763672 73.86000061035156,38.61000061035156 56.22999954223633,56.22999954223633 C38.61000061035156,73.86000061035156 24.760000228881836,94.4000015258789 15.09000015258789,117.26000213623047 C5.079999923706055,140.92999267578125 0,166.0800018310547 0,192 C0,217.9199981689453 5.070000171661377,243.05999755859375 15.09000015258789,266.7300109863281 C24.760000228881836,289.5799865722656 38.61000061035156,310.1300048828125 56.22999954223633,327.75 C73.86000061035156,345.3900146484375 94.4000015258789,359.2300109863281 117.26000213623047,368.8999938964844 C140.92999267578125,378.9100036621094 166.0800018310547,383.989990234375 192,383.989990234375 C217.9199981689453,383.989990234375 243.05999755859375,378.9100036621094 266.7300109863281,368.8999938964844 C289.5799865722656,359.2300109863281 310.1300048828125,345.3900146484375 327.7699890136719,327.75 C345.3900146484375,310.1300048828125 359.2300109863281,289.5799865722656 368.8999938964844,266.7300109863281 C378.9100036621094,243.05999755859375 383.989990234375,217.9199981689453 383.989990234375,192 C383.989990234375,166.0800018310547 378.8999938964844,140.92999267578125 368.8900146484375,117.26000213623047 C368.8900146484375,117.26000213623047 368.8900146484375,117.26000213623047 368.8900146484375,117.26000213623047z"></path></g></g><g opacity="1"><g opacity="1"><path fill="rgb(229,232,237)" fill-opacity="1" d=" M0.07999999821186066,197.38999938964844 C0.7400000095367432,221.39999389648438 5.769999980926514,244.6999969482422 15.09000015258789,266.7300109863281 C24.760000228881836,289.5799865722656 38.61000061035156,310.1300048828125 56.22999954223633,327.75 C73.86000061035156,345.3900146484375 94.4000015258789,359.2300109863281 117.26000213623047,368.8999938964844 C140.92999267578125,378.9100036621094 166.0800018310547,383.989990234375 192,383.989990234375 C217.9199981689453,383.989990234375 243.05999755859375,378.9100036621094 266.7300109863281,368.8999938964844 C289.5799865722656,359.2300109863281 310.1300048828125,345.3900146484375 327.7699890136719,327.75 C345.3900146484375,310.1300048828125 359.2300109863281,289.5799865722656 368.8999938964844,266.7300109863281 C378.2300109863281,244.6999969482422 383.260009765625,221.39999389648438 383.9200134277344,197.38999938964844 C383.9200134277344,197.38999938964844 0.07999999821186066,197.38999938964844 0.07999999821186066,197.38999938964844z"></path></g></g><g opacity="1"><g opacity="1"><path fill="rgb(66,73,84)" fill-opacity="1" d=" M383.07000732421875,210.91000366210938 C383.67999267578125,204.64999389648438 383.989990234375,198.35000610351562 383.989990234375,192 C383.989990234375,184.86000061035156 383.6000061035156,177.77999877929688 382.8399963378906,170.77999877929688 C373.29998779296875,172.25 359.6000061035156,174.1699981689453 342.3399963378906,176.07000732421875 C309.57000732421875,179.67999267578125 256.9100036621094,184 191.99000549316406,184 C127.08000183105469,184 74.41000366210938,179.67999267578125 41.650001525878906,176.07000732421875 C24.3799991607666,174.1699981689453 10.6899995803833,172.25 1.149999976158142,170.77999877929688 C0.3799999952316284,177.77999877929688 0,184.86000061035156 0,192 C0,198.35000610351562 0.30000001192092896,204.64999389648438 0.9100000262260437,210.91000366210938 C32.060001373291016,215.60000610351562 100.68000030517578,223.99000549316406 191.99000549316406,223.99000549316406 C283.29998779296875,223.99000549316406 351.9200134277344,215.60000610351562 383.07000732421875,210.91000366210938 C383.07000732421875,210.91000366210938 383.07000732421875,210.91000366210938 383.07000732421875,210.91000366210938z"></path></g></g><g opacity="1"><path fill="rgb(229,232,237)" fill-opacity="1" d=" M232,199.99000549316406 C232,222.0800018310547 214.0800018310547,239.99000549316406 191.99000549316406,239.99000549316406 C169.89999389648438,239.99000549316406 151.99000549316406,222.0800018310547 151.99000549316406,199.99000549316406 C151.99000549316406,177.89999389648438 169.89999389648438,160 191.99000549316406,160 C214.0800018310547,160 232,177.89999389648438 232,199.99000549316406 C232,199.99000549316406 232,199.99000549316406 232,199.99000549316406z"></path></g><g opacity="1"><path fill="rgb(66,73,84)" fill-opacity="1" d=" M191.99000549316406,232 C174.35000610351562,232 160,217.6300048828125 160,199.99000549316406 C160,182.35000610351562 174.35000610351562,168 191.99000549316406,168 C209.63999938964844,168 223.97999572753906,182.35000610351562 223.97999572753906,199.99000549316406 C223.97999572753906,217.6300048828125 209.63999938964844,232 191.99000549316406,232 C191.99000549316406,232 191.99000549316406,232 191.99000549316406,232z M191.99000549316406,128 C152.2899932861328,128 120,160.2899932861328 120,199.99000549316406 C120,239.69000244140625 152.2899932861328,271.9800109863281 191.99000549316406,271.9800109863281 C231.69000244140625,271.9800109863281 263.989990234375,239.69000244140625 263.989990234375,199.99000549316406 C263.989990234375,160.2899932861328 231.69000244140625,128 191.99000549316406,128 C191.99000549316406,128 191.99000549316406,128 191.99000549316406,128z"></path></g><g opacity="1"><g opacity="1"><path fill="rgb(255,255,255)" fill-opacity="0.2" d=" M368.8900146484375,117.26000213623047 C359.2200012207031,94.4000015258789 345.3800048828125,73.86000061035156 327.760009765625,56.22999954223633 C310.1199951171875,38.61000061035156 289.5799865722656,24.770000457763672 266.7300109863281,15.100000381469727 C243.05999755859375,5.090000152587891 217.91000366210938,0 191.99000549316406,0 C189.30999755859375,0 186.64999389648438,0.05999999865889549 184,0.17000000178813934 C207.08999633789062,1.1100000143051147 229.5,6.119999885559082 250.72999572753906,15.100000381469727 C273.6099853515625,24.770000457763672 294.1300048828125,38.61000061035156 311.75,56.22999954223633 C329.3699951171875,73.86000061035156 343.2300109863281,94.4000015258789 352.8999938964844,117.26000213623047 C362.9200134277344,140.92999267578125 367.9800109863281,166.08999633789062 367.9800109863281,192 C367.9800109863281,217.9199981689453 362.9200134277344,243.05999755859375 352.8999938964844,266.7300109863281 C343.2300109863281,289.5799865722656 329.3699951171875,310.1300048828125 311.75,327.75 C294.1300048828125,345.3900146484375 273.6000061035156,359.2300109863281 250.72999572753906,368.8999938964844 C229.5,377.8800048828125 207.08999633789062,382.8900146484375 184,383.8299865722656 C186.64999389648438,383.94000244140625 189.30999755859375,383.989990234375 191.99000549316406,383.989990234375 C217.91000366210938,383.989990234375 243.05999755859375,378.9100036621094 266.7300109863281,368.8999938964844 C289.5799865722656,359.2300109863281 310.1199951171875,345.3900146484375 327.760009765625,327.75 C345.3800048828125,310.1300048828125 359.2200012207031,289.5799865722656 368.8900146484375,266.7300109863281 C378.8999938964844,243.05999755859375 383.989990234375,217.9199981689453 383.989990234375,192 C383.989990234375,166.0800018310547 378.8999938964844,140.92999267578125 368.8900146484375,117.26000213623047 C368.8900146484375,117.26000213623047 368.8900146484375,117.26000213623047 368.8900146484375,117.26000213623047z"></path></g></g><g opacity="1"><g opacity="1"><path fill="rgb(0,0,0)" fill-opacity="0.1" d=" M15.09000015258789,266.7300109863281 C24.760000228881836,289.5799865722656 38.61000061035156,310.1300048828125 56.22999954223633,327.75 C73.86000061035156,345.3900146484375 94.4000015258789,359.2300109863281 117.26000213623047,368.8999938964844 C140.92999267578125,378.9100036621094 166.0800018310547,383.989990234375 192,383.989990234375 C194.67999267578125,383.989990234375 197.33999633789062,383.94000244140625 199.99000549316406,383.8299865722656 C176.89999389648438,382.8900146484375 154.47999572753906,377.8800048828125 133.25,368.8999938964844 C110.38999938964844,359.2300109863281 89.86000061035156,345.3900146484375 72.2300033569336,327.75 C54.599998474121094,310.1300048828125 40.77000045776367,289.5799865722656 31.09000015258789,266.7300109863281 C21.06999969482422,243.05999755859375 16,217.9199981689453 16,192 C16,166.08999633789062 21.079999923706055,140.92999267578125 31.09000015258789,117.26000213623047 C40.77000045776367,94.4000015258789 54.599998474121094,73.86000061035156 72.2300033569336,56.2400016784668 C89.86000061035156,38.61000061035156 110.4000015258789,24.760000228881836 133.25999450683594,15.09000015258789 C154.49000549316406,6.110000133514404 176.91000366210938,1.100000023841858 200,0.1599999964237213 C197.35000610351562,0.05000000074505806 194.67999267578125,0 192,0 C166.08999633789062,0 140.94000244140625,5.070000171661377 117.2699966430664,15.09000015258789 C94.41000366210938,24.760000228881836 73.86000061035156,38.61000061035156 56.22999954223633,56.2400016784668 C38.61000061035156,73.86000061035156 24.770000457763672,94.4000015258789 15.100000381469727,117.26000213623047 C5.079999923706055,140.92999267578125 0,166.0800018310547 0,192 C0,217.9199981689453 5.079999923706055,243.05999755859375 15.09000015258789,266.7300109863281 C15.09000015258789,266.7300109863281 15.09000015258789,266.7300109863281 15.09000015258789,266.7300109863281z"></path></g></g></g></g></g></svg>